<svg xmlns="http://www.w3.org/2000/svg" viewBox="0 0 66 66"><title>codepen</title><path d="M9.84,33c0-2.14-.13-4.3.07-6.42A3.85,3.85,0,0,1,11.26,24c6.7-4.58,13.48-9,20.21-13.55a2.41,2.41,0,0,1,3,0c6.78,4.54,13.6,9,20.35,13.63a3.49,3.49,0,0,1,1.27,2.43q.18,6.51,0,13a3.44,3.44,0,0,1-1.29,2.42C48.07,46.55,41.24,51,34.46,55.57a2.41,2.41,0,0,1-3-.06C24.71,51,17.93,46.55,11.24,42A3.85,3.85,0,0,1,9.91,39.4C9.71,37.28,9.84,35.13,9.84,33ZM31.08,50.52c0-3.14,0-5.91,0-8.69a2,2,0,0,0-.88-1.22Q26.73,38.23,23.21,36c-.35-.22-1-.4-1.27-.22-2.16,1.35-4.26,2.8-6.57,4.34Zm3.85,0,15.7-10.47c-2.21-1.48-4.14-2.84-6.14-4.07a1.91,1.91,0,0,0-1.68,0c-2.36,1.47-4.67,3.05-7,4.64A2,2,0,0,0,35,41.83C34.89,44.6,34.93,47.38,34.93,50.53Zm15.7-24.6L34.93,15.48c0,3.18,0,6,0,8.75a1.72,1.72,0,0,0,.79,1.1c2.34,1.62,4.69,3.22,7.09,4.74a1.76,1.76,0,0,0,1.55,0C46.44,28.81,48.41,27.43,50.63,25.93Zm-35.26,0c2.24,1.5,4.21,2.88,6.26,4.15a1.77,1.77,0,0,0,1.54,0c2.41-1.52,4.75-3.13,7.11-4.74.29-.2.73-.52.73-.79.06-2.91,0-5.83,0-9ZM25.93,33c2.26,1.52,4.33,2.94,6.44,4.3a1.26,1.26,0,0,0,1.13.08c2.17-1.4,4.31-2.86,6.57-4.39-2.21-1.48-4.22-2.88-6.31-4.18a1.74,1.74,0,0,0-1.51,0C30.16,30.11,28.14,31.51,25.93,33ZM13.82,36.35l5-3.35-5-3.33Zm38.3,0V29.7L47.18,33Z"/></svg>