<svg xmlns="http://www.w3.org/2000/svg" viewBox="0 0 66 66"><title>github</title><path d="M37.31,44.06c1.14-.23,2.2-.38,3.23-.65,4.57-1.2,7.14-4.31,7.55-9A13.23,13.23,0,0,0,48,30.17a8.69,8.69,0,0,0-1.81-3.66.78.78,0,0,1-.18-.85,8.25,8.25,0,0,0-.23-5.48.75.75,0,0,0-.58-.36,7,7,0,0,0-3.2.81c-.86.41-1.68.92-2.53,1.35a1.14,1.14,0,0,1-.72.12A23.2,23.2,0,0,0,27.56,22a1.14,1.14,0,0,1-.76-.15,14.19,14.19,0,0,0-5-2.22c-1.09-.19-1.21-.13-1.52.91a8.72,8.72,0,0,0-.09,5,.74.74,0,0,1-.14.59,9.62,9.62,0,0,0-2.24,7.19,13.7,13.7,0,0,0,1,4.77,9.33,9.33,0,0,0,6.55,5.24c.82.22,1.66.34,2.49.51l.55.12A5.68,5.68,0,0,0,27,46.84a.64.64,0,0,1-.37.35,4.92,4.92,0,0,1-6.53-2.13,4.92,4.92,0,0,0-3.18-2.43,3,3,0,0,0-1,0c-.18,0-.47.18-.48.3a.89.89,0,0,0,.24.58,1.66,1.66,0,0,0,.47.4,6.41,6.41,0,0,1,2.59,3.26,5.2,5.2,0,0,0,4.83,3.39,30.11,30.11,0,0,0,3.27-.07c0,.11,0,.3,0,.5,0,1.15,0,2.3,0,3.45s-.71,1.75-1.88,1.33A23.21,23.21,0,0,1,13.13,46.5,23.49,23.49,0,0,1,28.71,10.36,23.58,23.58,0,0,1,40.52,55.93c-1.16.36-1.84-.14-1.82-1.35,0-1.88,0-3.77.08-5.65A6.5,6.5,0,0,0,37.31,44.06Z"/><path d="M24.47,47.92l.48.44c-.18.13-.35.32-.55.34s-.28-.21-.43-.33Z"/><path d="M20.78,46.48c.23.33.4.52.52.74,0,0-.28.28-.31.26a2,2,0,0,1-.5-.51S20.61,46.75,20.78,46.48Z"/><path d="M22.59,48.54,22.06,48c.12-.1.29-.31.37-.29a2.73,2.73,0,0,1,.58.4Z"/><path d="M26.33,47.72l.44.4a2.46,2.46,0,0,1-.6.39c-.08,0-.25-.2-.38-.31Z"/><path d="M20.22,45.83c-.2.14-.36.3-.39.27a1.88,1.88,0,0,1-.45-.48s.24-.29.26-.28A5,5,0,0,1,20.22,45.83Z"/><path d="M19.27,44.55c-.22.11-.37.23-.41.2a1.49,1.49,0,0,1-.38-.41s.19-.24.21-.23A5.55,5.55,0,0,1,19.27,44.55Z"/></svg>