<svg xmlns="http://www.w3.org/2000/svg" viewBox="0 0 66 66"><title>mail</title><path d="M58,19.1c-2,3.32-3.95,6.66-6,10-3.56,5.83-7.16,11.64-10.74,17.46-1.42,2.32-3.19,2.76-5.51,1.37L29.27,44,21.2,50.25c-.53.41-1.14,1-1.75.44a2.43,2.43,0,0,1-.6-1.62c-.05-3.48,0-7,0-10.44a1.39,1.39,0,0,0-.8-1.4C15.3,35.63,12.6,34,9.87,32.34a3.36,3.36,0,0,1-1.82-3.4,3.31,3.31,0,0,1,2.74-3q21.14-5.32,42.26-10.65c2.56-.65,3.81,0,4.92,2.43ZM27.14,38l10.7,6.43C43,36.16,48,27.91,53.26,19.4L13,29.55c2.56,1.54,4.93,2.94,7.28,4.39a1.62,1.62,0,0,0,1.62.13c4.95-1.94,9.9-3.84,14.86-5.75.38-.15.79-.25,1.18-.37l.29.43C34.65,31.64,30.88,34.69,27.14,38Z"/><path d="M27.14,38c3.74-3.35,7.51-6.4,11.08-9.66L37.93,28c-.39.12-.8.22-1.18.37-5,1.91-9.91,3.81-14.86,5.75a1.62,1.62,0,0,1-1.62-.13c-2.35-1.45-4.72-2.85-7.28-4.39L53.26,19.4C48,27.91,43,36.16,37.84,44.47Z" style="fill:#fff"/></svg>