<svg xmlns="http://www.w3.org/2000/svg" viewBox="0 0 66 66"><title>medium</title><rect x="-0.07" y="0.05" width="65.89" height="65.89" style="fill:#12100e"/><path d="M15.65,22.09a1.73,1.73,0,0,0-.55-1.45l-4.14-5v-.75H23.8l9.92,21.76,8.72-21.76H54.67v.75l-3.53,3.38a1.05,1.05,0,0,0-.4,1V44.94a1,1,0,0,0,.4,1l3.45,3.39v.74H37.23v-.74l3.57-3.47c.35-.35.35-.45.35-1V24.74L31.21,50H29.87L18.3,24.74V41.66a2.33,2.33,0,0,0,.64,1.94l4.65,5.64V50H10.4v-.74l4.65-5.64a2.25,2.25,0,0,0,.6-1.94Z" style="fill:#fff"/></svg>